<svg width="170" height="52" viewBox="0 0 170 52" fill="none" xmlns="http://www.w3.org/2000/svg"><circle cx="144" cy="26" r="23.5" stroke="url(#paint0_linear)" stroke-width="5"/><path fill-rule="evenodd" clip-rule="evenodd" d="M127.1 7H25.5L23.6463 15H20.5C19.1193 15 18 16.1193 18 17.5C18 18.8807 19.1193 20 20.5 20H22.4878L21.3293 25H2.5C1.11929 25 0 26.1193 0 27.5C0 28.8807 1.11929 30 2.5 30H20.1707L19.0122 35H9.5C8.11929 35 7 36.1193 7 37.5C7 38.8807 8.11929 40 9.5 40H17.8537L16 48H131.137C123.56 43.3947 118.526 35.2631 118.526 26C118.526 18.5019 121.824 11.7452 127.1 7ZM14.5 15C13.1193 15 12 16.1193 12 17.5C12 18.8807 13.1193 20 14.5 20C15.8807 20 17 18.8807 17 17.5C17 16.1193 15.8807 15 14.5 15Z" fill="url(#paint1_linear)"/><path d="M43.5332 26.0078L44.3535 18.7812H52.3223V21.1348H46.668L46.3164 24.1914C46.987 23.8333 47.6999 23.6543 48.4551 23.6543C49.8092 23.6543 50.8704 24.0742 51.6387 24.9141C52.4069 25.7539 52.791 26.929 52.791 28.4395C52.791 29.3574 52.5957 30.181 52.2051 30.9102C51.821 31.6328 51.2676 32.196 50.5449 32.5996C49.8223 32.9967 48.9694 33.1953 47.9863 33.1953C47.127 33.1953 46.3294 33.0228 45.5938 32.6777C44.8581 32.3262 44.2754 31.8346 43.8457 31.2031C43.4225 30.5716 43.1979 29.8522 43.1719 29.0449H45.9648C46.0234 29.6374 46.2285 30.0996 46.5801 30.4316C46.9382 30.7572 47.4036 30.9199 47.9766 30.9199C48.6146 30.9199 49.1061 30.6921 49.4512 30.2363C49.7962 29.7741 49.9688 29.123 49.9688 28.2832C49.9688 27.4759 49.7702 26.8574 49.373 26.4277C48.9759 25.998 48.4128 25.7832 47.6836 25.7832C47.013 25.7832 46.4694 25.959 46.0527 26.3105L45.7793 26.5645L43.5332 26.0078ZM62.293 22.4336L62.3809 23.6543C63.1361 22.7103 64.1484 22.2383 65.418 22.2383C66.5378 22.2383 67.3711 22.5671 67.918 23.2246C68.4648 23.8822 68.7448 24.8652 68.7578 26.1738V33H65.9355V26.2422C65.9355 25.6432 65.8053 25.2103 65.5449 24.9434C65.2845 24.6699 64.8516 24.5332 64.2461 24.5332C63.4518 24.5332 62.8561 24.8717 62.459 25.5488V33H59.6367V22.4336H62.293ZM70.4961 27.6387C70.4961 26.0176 70.8802 24.7122 71.6484 23.7227C72.4232 22.7331 73.4648 22.2383 74.7734 22.2383C75.9323 22.2383 76.834 22.6354 77.4785 23.4297L77.5957 22.4336H80.1543V32.6484C80.1543 33.5729 79.9427 34.377 79.5195 35.0605C79.1029 35.7441 78.5137 36.265 77.752 36.623C76.9902 36.9811 76.0983 37.1602 75.0762 37.1602C74.3014 37.1602 73.5462 37.0039 72.8105 36.6914C72.0749 36.3854 71.5182 35.9883 71.1406 35.5L72.3906 33.7812C73.0938 34.569 73.9466 34.9629 74.9492 34.9629C75.6979 34.9629 76.2806 34.7611 76.6973 34.3574C77.1139 33.9603 77.3223 33.3939 77.3223 32.6582V32.0918C76.6712 32.8275 75.8151 33.1953 74.7539 33.1953C73.4844 33.1953 72.4557 32.7005 71.668 31.7109C70.8867 30.7148 70.4961 29.3965 70.4961 27.7559V27.6387ZM73.3184 27.8438C73.3184 28.8008 73.5104 29.5527 73.8945 30.0996C74.2786 30.64 74.806 30.9102 75.4766 30.9102C76.3359 30.9102 76.9512 30.5879 77.3223 29.9434V25.5C76.9447 24.8555 76.3359 24.5332 75.4961 24.5332C74.819 24.5332 74.2852 24.8099 73.8945 25.3633C73.5104 25.9167 73.3184 26.7435 73.3184 27.8438ZM88.4551 33C88.3249 32.7461 88.2305 32.4303 88.1719 32.0527C87.4883 32.8145 86.5996 33.1953 85.5059 33.1953C84.4707 33.1953 83.6113 32.8958 82.9277 32.2969C82.2507 31.6979 81.9121 30.9427 81.9121 30.0312C81.9121 28.9115 82.3255 28.0521 83.1523 27.4531C83.9857 26.8542 85.1868 26.5514 86.7559 26.5449H88.0547V25.9395C88.0547 25.4512 87.9277 25.0605 87.6738 24.7676C87.4264 24.4746 87.0326 24.3281 86.4922 24.3281C86.0169 24.3281 85.6426 24.4421 85.3691 24.6699C85.1022 24.8978 84.9688 25.2103 84.9688 25.6074H82.1465C82.1465 24.9954 82.3353 24.429 82.7129 23.9082C83.0905 23.3874 83.6243 22.9805 84.3145 22.6875C85.0046 22.388 85.7793 22.2383 86.6387 22.2383C87.9408 22.2383 88.9727 22.5671 89.7344 23.2246C90.5026 23.8757 90.8867 24.7936 90.8867 25.9785V30.5586C90.8932 31.5612 91.0332 32.3197 91.3066 32.834V33H88.4551ZM86.1211 31.0371C86.5378 31.0371 86.9219 30.946 87.2734 30.7637C87.625 30.5749 87.8854 30.3242 88.0547 30.0117V28.1953H87C85.5872 28.1953 84.8353 28.6836 84.7441 29.6602L84.7344 29.8262C84.7344 30.1777 84.8581 30.4674 85.1055 30.6953C85.3529 30.9232 85.6914 31.0371 86.1211 31.0371ZM88.0352 21.0273H85.7207L83.0254 18H86.1016L88.0352 21.0273ZM96.8438 29.0059L98.7969 22.4336H101.824L97.5762 34.6406L97.3418 35.1973C96.7103 36.5775 95.6686 37.2676 94.2168 37.2676C93.8066 37.2676 93.39 37.2057 92.9668 37.082V34.9434L93.3965 34.9531C93.9303 34.9531 94.3275 34.8717 94.5879 34.709C94.8548 34.5462 95.0632 34.276 95.2129 33.8984L95.5449 33.0293L91.8438 22.4336H94.8809L96.8438 29.0059Z" fill="white"/><circle cx="144" cy="26" r="11" fill="#EE4D2D"/><path d="M144 19.5V27L149 29" stroke="white" stroke-width="1.5" stroke-linejoin="round"/><defs><linearGradient id="paint0_linear" x1="118" y1="0" x2="118" y2="52" gradientUnits="userSpaceOnUse"><stop stop-color="#EE4D2D"/><stop offset="1" stop-color="#FF7337"/></linearGradient><linearGradient id="paint1_linear" x1="0" y1="7" x2="0" y2="48" gradientUnits="userSpaceOnUse"><stop stop-color="#EE4D2D"/><stop offset="1" stop-color="#FF7337"/></linearGradient></defs></svg>