<svg width="142" height="90" viewBox="0 0 142 90" fill="none" xmlns="http://www.w3.org/2000/svg">
<circle cx="88" cy="45" r="45" fill="#FEF6F5"/>
<path d="M112.213 45.3496C110.947 46.2381 110.223 47.6798 108.778 48.7549C107.333 49.83 102.809 50.3698 102.809 50.3698C102.809 50.3698 99.3746 48.0396 96.6613 46.7846C93.9479 45.5295 91.9561 44.6321 91.0598 44.2745C90.5221 44.0523 90.6117 43.6569 90.7955 43.3637C90.5714 43.617 90.2107 43.9146 89.7939 43.9146C89.3772 43.9146 89.2764 43.8102 89.2427 43.7125C89.0747 44.0235 88.062 44.3522 87.4503 44.812C87.0223 45.1297 86.7781 44.9475 86.6616 44.7432C86.782 45.0504 86.8047 45.3868 86.7266 45.7072C85.8566 47.9862 84.8295 50.2032 83.6525 52.3424C82.7361 53.9306 80.8809 54.0106 79.503 53.453C73.626 67.112 91.0666 71.8901 91.0666 71.8901C91.0666 71.8901 99.2043 65.0773 103.905 62.5605C108.606 60.0437 111.501 56.6451 114.395 54.4926C117.29 52.3401 119.278 51.9825 123.618 51.0873C127.957 50.1921 126.331 52.5911 135.011 50.7985L134.885 37.746C132.71 38.3568 113.432 44.4855 112.213 45.3496Z" fill="#F4926C"/>
<path d="M111.852 45.7073L111.792 45.6851C110.77 46.5736 110.055 47.8064 108.778 48.7549C107.331 49.8323 102.809 50.3699 102.809 50.3699C102.809 50.3699 99.3746 48.0397 96.6613 46.7846C93.9479 45.5296 91.9561 44.6322 91.0598 44.2745C90.5221 44.0524 90.6117 43.657 90.7955 43.3638C90.5714 43.617 90.2107 43.9147 89.7939 43.9147C89.3772 43.9147 89.2764 43.8103 89.2427 43.7125C89.0747 44.0235 88.062 44.3523 87.4503 44.8121C87.0223 45.1297 86.7781 44.9476 86.6616 44.7432C86.782 45.0505 86.8047 45.3869 86.7266 45.7073C85.8566 47.9863 84.8295 50.2032 83.6525 52.3424C82.7361 53.9307 80.8809 54.0106 79.503 53.4531C73.626 67.112 91.0666 71.8901 91.0666 71.8901C91.0666 71.8901 99.2043 65.0773 103.905 62.5605C108.606 60.0438 111.501 56.6451 114.395 54.4927C114.595 54.3438 114.792 54.2039 114.987 54.0706C116.513 50.1988 114.868 46.9912 111.852 45.7073Z" fill="#FC9E7A"/>
<path d="M40 39.2543C47.9562 40.1429 46.6612 40.1429 53.533 39.7919C60.4048 39.4409 63.1159 39.0744 65.4663 39.612C67.8166 40.1495 71.2536 38.7234 74.8766 37.2818C78.4996 35.8402 81.5625 34.9516 83.1892 34.2341C84.8158 33.5166 87.3476 32.7991 90.061 35.1227C92.7743 37.4462 95.6624 40.5005 95.6624 40.5005L90.4127 43.5571C90.4127 43.5571 96.3816 46.4248 99.2742 48.2219C102.167 50.0189 103.979 51.0918 105.785 51.987C107.591 52.8822 109.762 53.7796 110.849 55.0347C111.936 56.2898 113.381 58.0824 112.294 59.5174C111.207 60.9523 108.678 61.31 107.23 60.0549C105.783 58.7999 103.796 58.2623 102.711 57.5448C101.627 56.8273 97.2845 55.0347 96.7423 54.6771C96.2001 54.3194 95.4764 54.6771 96.3816 55.3946C97.2868 56.112 99.2742 57.1872 101.445 58.9798C103.616 60.7724 104.701 61.1323 105.422 61.31C106.144 61.4877 107.23 64.7175 105.604 66.1503C103.977 67.583 101.082 66.69 101.082 66.69C101.082 66.69 101.625 68.6604 100.186 69.7377C98.7476 70.8151 96.7491 70.2753 96.7491 70.2753C96.7491 70.2753 97.112 72.7854 94.5802 72.9631C92.0483 73.1408 90.6009 72.2478 89.335 71.3504C88.0691 70.453 71.2537 62.5606 68.5426 60.7635C65.8315 58.9665 64.3818 57.7159 61.1263 57.7159C57.8708 57.7159 40 59.875 40 59.875V39.2543Z" fill="#FECCA7"/>
<path d="M101.181 67.272C101.169 67.0743 101.139 66.878 101.091 66.6856C98.9226 64.8907 92.4115 60.4103 91.6811 60.0505C90.9507 59.6906 90.0544 59.6928 92.2255 61.1278C94.3967 62.5628 98.9271 65.4283 100.007 66.3168C100.475 66.7145 100.876 67.0343 101.181 67.272Z" fill="#EDB28A"/>
<path d="M86.5348 62.6516C85.6386 62.1118 85.4504 62.2918 87.6192 63.9067C89.1876 65.064 94.0989 68.9091 96.745 70.9816C96.7714 70.7521 96.7714 70.5203 96.745 70.2908L96.6532 70.1797C94.6703 68.747 87.44 63.1892 86.5348 62.6516Z" fill="#EDB28A"/>
<path d="M105.544 61.3566C106.086 63.5446 104.119 65.9814 101.973 66.8744C102.959 67.0254 104.554 67.0809 105.614 66.1458C107.16 64.7841 106.259 61.8053 105.544 61.3566Z" fill="#FCD6BE"/>
<path d="M101.09 66.6855H101.113L100.911 66.53L100.81 66.5989C100.743 68.6714 98.5048 69.8687 96.2553 69.6554L96.0312 69.8109L96.7572 70.2552C96.7572 70.2552 98.7468 70.7928 100.194 69.7176C101.642 68.6425 101.09 66.6855 101.09 66.6855Z" fill="#FCD6BE"/>
<path d="M108.391 53.2621C110.257 54.7215 108.142 59.1553 104.217 58.3067C105.198 58.751 106.327 59.2597 107.239 60.0505C108.687 61.3055 111.219 60.939 112.303 59.5129C113.387 58.0868 111.942 56.2853 110.858 55.0303C110.273 54.3572 109.377 53.7863 108.391 53.2621Z" fill="#FCD6BE"/>
<path d="M96.751 54.6726L96.7914 54.697C95.6397 53.3931 94.8376 51.3406 94.5822 51.0873C94.2192 50.7275 94.7278 54.1128 96.1013 55.1102C95.6868 54.5881 96.285 54.3638 96.751 54.6726Z" fill="#EDB28A"/>
<path d="M94.5833 72.9586C96.4676 72.8253 96.7476 71.4037 96.7701 70.6817L95.2017 69.7732C95.6498 71.7857 93.4988 72.7809 90.6914 72.1967C91.8853 72.8233 93.2387 73.0883 94.5833 72.9586Z" fill="#FCD6BE"/>
<path d="M134.911 27.5812C134.911 27.5812 117.638 32.4415 114.022 33.8853C110.405 35.3292 108.786 35.4891 107.331 35.6624C105.877 35.8357 105.16 35.6624 103.715 35.3025C102.27 34.9427 98.2885 34.585 96.3011 34.585C94.3137 34.585 92.3218 33.1523 89.79 33.5099C87.2581 33.8676 85.6315 35.8468 84.3633 36.9241C83.0952 38.0015 79.4789 39.7919 78.7619 41.0469C78.0449 42.302 78.5804 44.8232 78.399 46.6002C78.2175 48.3773 77.3145 50.3765 77.8567 51.9781C78.399 53.5797 82.1967 54.8481 83.6441 52.338C84.8211 50.1988 85.8482 47.9818 86.7182 45.7028C86.8997 45.1653 86.5367 44.4478 86.5367 44.4478C86.5367 44.4478 86.7182 45.3363 87.4329 44.8076C88.1477 44.2789 89.4225 43.9191 89.2411 43.5526C89.2411 43.5526 89.0596 43.9102 89.7833 43.9102C90.507 43.9102 91.0492 43.0217 91.0492 43.0217C91.0492 43.0217 90.153 43.9102 91.0492 44.2767C91.9454 44.6432 93.9418 45.5318 96.6506 46.7868C99.3595 48.0419 102.799 50.3721 102.799 50.3721C102.799 50.3721 107.32 49.8345 108.768 48.7572C110.215 47.6798 110.936 46.2493 112.202 45.3519C113.468 44.4544 135 37.7105 135 37.7105L134.911 27.5812Z" fill="#FFA579"/>
<path d="M91.0556 71.8834C89.2474 74.2136 88.3422 75.2909 85.4541 74.9311C82.5661 74.5712 82.0171 71.8834 82.7408 70.4484L86.1778 63.6356C86.1778 63.6356 88.7097 61.843 89.4334 64.713C90.1571 67.5829 89.2474 70.9816 89.2474 70.9816L91.0556 71.8834Z" fill="#FFA579"/>
<path d="M86.174 63.6357L82.737 70.4485C82.4856 71.0008 82.3975 71.6125 82.4828 72.2125C82.568 72.8125 82.8232 73.3763 83.2187 73.8383C86.23 75.4332 88.7058 73.1385 89.248 70.9883C89.248 70.9883 90.1443 67.5808 89.4295 64.713C88.7148 61.8453 86.174 63.6357 86.174 63.6357Z" fill="#FCA886"/>
<path d="M82.4697 72.1033C80.2044 73.1385 78.2126 72.6009 77.1304 71.3459C76.0482 70.0908 76.4067 69.1934 76.5882 68.4781C76.7697 67.7629 81.1096 61.6653 82.0126 60.7679C82.9155 59.8705 84.3652 59.3329 85.9918 60.4102C87.6185 61.4876 86.534 63.8155 86.1733 64.533C85.8126 65.2505 82.4697 72.1033 82.4697 72.1033Z" fill="#F4A082"/>
<path d="M76.5888 68.6559C74.9621 70.2708 71.5251 69.911 70.0911 67.4009C68.6571 64.8907 71.357 62.3806 72.0785 61.1278C72.8 59.875 76.4185 55.5745 79.8555 56.6452C83.2925 57.7158 81.2267 61.7187 81.2267 61.7187L76.5888 68.6559Z" fill="#FCA886"/>
<path d="M64.4732 58.4377C65.7369 56.2853 70.4399 60.0504 70.8006 61.3055C71.1613 62.5605 68.9925 65.0706 66.4606 64.8907C63.9288 64.7108 64.1103 62.2029 64.1103 60.9478C64.1281 60.0996 64.25 59.2567 64.4732 58.4377Z" fill="#FFA579"/>
<path d="M70.8016 61.3055C70.4409 60.0504 65.7379 56.2853 64.4742 58.4377C64.4742 58.4377 64.3734 58.782 64.2793 59.2885C64.3958 60.8434 65.422 62.5605 67.0038 62.5605C68.2944 62.5605 68.6753 62.8982 69.3968 63.9133C70.4073 63.1159 71.0055 62.0119 70.8016 61.3055Z" fill="#F4926C"/>
<path d="M90.9666 43.1083C91.6881 42.0332 91.1459 41.4956 90.7851 40.4183C90.4244 39.3409 92.0511 37.5505 92.7748 34.6828C92.8264 34.454 92.7847 34.2142 92.6588 34.0157C92.5329 33.8173 92.333 33.6762 92.1026 33.6232C91.3473 33.4527 90.5674 33.4166 89.7993 33.5166C87.2585 33.8853 85.6318 35.8468 84.3637 36.9241C83.0955 38.0015 79.4792 39.7919 78.7623 41.0469C78.6146 41.3175 78.5153 41.6113 78.4688 41.9155C80.2612 38.3991 85 41.8533 86.6289 44.7232L86.6737 44.801L86.6535 44.7432C86.7768 44.9476 87.0143 45.1297 87.4422 44.8121C88.0606 44.3523 89.0733 44.0235 89.2347 43.7125C89.2683 43.8103 89.3915 43.9147 89.7859 43.9147C90.1802 43.9147 90.5588 43.617 90.7874 43.3638L90.7695 43.3971C90.8367 43.3016 90.8994 43.2149 90.9666 43.1083Z" fill="#FC9E7A"/>
<path d="M110.579 41.4045C111.432 43.477 111.39 44.6099 111.813 45.6606C111.939 45.5518 112.069 45.4385 112.205 45.3496C113.471 44.4611 134.992 37.7105 134.992 37.7105L134.902 27.5812C134.902 27.5812 117.639 32.4415 114.022 33.8853C110.406 35.3292 108.786 35.4891 107.332 35.6624C106.423 35.792 105.497 35.743 104.607 35.518C110.767 36.9241 108.959 37.4617 110.579 41.4045Z" fill="#F79779"/>
<path d="M84.9082 67.7607C84.9082 68.8358 86.7163 68.6492 86.7163 68.6492L88.5245 65.9614C88.5245 65.9614 87.8008 65.0729 87.0771 64.8841C86.3534 64.6953 85.9926 64.8841 85.9926 64.8841L84.9082 67.7607Z" fill="#F7B69F"/>
<path d="M84.9065 61.4855C83.8826 60.7258 83.2776 60.5969 83.2776 60.5969C83.2776 60.5969 80.9273 62.9293 81.8324 64.1844C82.7376 65.4394 84.725 64.0044 85.0857 63.4669C85.4465 62.9293 85.8094 62.3895 85.8094 62.3895C85.8094 62.3895 85.6302 62.023 84.9065 61.4855Z" fill="#F7B69F"/>
<path d="M79.4814 58.2578C78.6558 58.0051 77.8093 57.8253 76.9518 57.7202C76.9518 57.7202 74.9532 59.8749 75.1414 61.1277C75.3296 62.3806 77.6979 63.7778 78.9504 62.4605C79.7996 61.5373 80.5813 60.5552 81.2895 59.5217C80.8057 58.9541 80.1832 58.5189 79.4814 58.2578Z" fill="#F7B69F"/>
<path d="M67.0033 62.5606C65.8046 62.5606 64.9241 61.5787 64.5185 60.4192C64.3348 60.9879 64.2945 61.5921 64.653 62.023C65.4013 62.9115 66.7703 63.4335 67.3215 62.5694C67.2207 62.565 67.1109 62.5606 67.0033 62.5606Z" fill="#F7B69F"/>
<path d="M77.7637 51.8937C79.5718 52.7823 81.7407 50.4588 81.7407 50.4588C81.7407 50.4588 83.1881 46.6825 80.4748 46.5159C77.7614 46.3493 77.7637 51.8937 77.7637 51.8937Z" fill="#F7B69F"/>
<g opacity="0.42">
<path opacity="0.44" d="M91.0566 43.8635C94.8051 42.3241 97.6954 37.1284 96.9717 35.8667" stroke="#AF6038" stroke-miterlimit="10" stroke-linecap="round"/>
<path opacity="0.44" d="M92.4069 35.8845C92.2747 38.9277 90.2874 38.75 90.8385 40.3627C91.3897 41.9754 91.3763 42.9506 90.7467 43.7169" stroke="#AF6038" stroke-miterlimit="10" stroke-linecap="round"/>
<path opacity="0.44" d="M108.717 43.215C108.356 46.798 102.154 49.4991 102.154 49.4991" stroke="#AF6038" stroke-miterlimit="10" stroke-linecap="round"/>
<path opacity="0.44" d="M85.6797 42.2332C86.1935 42.4329 86.6378 42.7762 86.9588 43.2213C87.2797 43.6665 87.4635 44.1944 87.4878 44.741" stroke="#AF6038" stroke-miterlimit="10" stroke-linecap="round"/>
<path opacity="0.44" d="M85.4082 40.8914C86.0542 40.966 86.656 41.2539 87.1169 41.7088C87.5778 42.1637 87.8709 42.7591 87.949 43.3992" stroke="#AF6038" stroke-miterlimit="10" stroke-linecap="round"/>
<path opacity="0.44" d="M99.2367 35.1049C101.67 36.411 100.581 41.6067 96.25 44.1146" stroke="#AF6038" stroke-miterlimit="10" stroke-linecap="round"/>
</g>
<path opacity="0.39" d="M93.8109 56.2741C94.9312 57.5025 93.309 57.9423 90.8264 58.0889C88.3439 58.2356 87.5821 55.45 89.202 55.2212C91.7316 54.8636 92.8183 55.1746 93.8109 56.2741Z" fill="#FFD9C0"/>
<path opacity="0.39" d="M96.8321 49.879C97.7081 50.0233 97.1233 49.1548 95.6647 47.7087C94.2061 46.2626 91.8558 47.4044 91.8692 48.1419C91.9118 49.6635 94.2621 49.3058 95.1651 49.6635C95.6924 49.8776 96.267 49.9518 96.8321 49.879Z" fill="#FFD9C0"/>
<path d="M120.776 28.9997L114.746 30.7151L121.914 55.4831L127.945 53.7677L120.776 28.9997Z" fill="white"/>
<path d="M141.5 49L127.759 53.1265L120.961 29.6404L135 25.5L141.5 49Z" fill="#0046AB"/>
<path d="M53.4296 62.0298L59.7031 62.0081L59.6124 36.2407L53.3389 36.2625L53.4296 62.0298Z" fill="white"/>
<path d="M40 36.9952L53.3358 36.9441L53.4255 61.3788L40 61.4854V36.9952Z" fill="#26AA99"/>
<path d="M34.79 71H0.982385V64.2927L16.9377 47.2873C19.1283 44.8934 20.743 42.8044 21.7818 41.0203C22.8433 39.2362 23.374 37.5425 23.374 35.939C23.374 33.7484 22.8207 32.0321 21.7141 30.79C20.6075 29.5253 19.0266 28.893 16.9715 28.893C14.7584 28.893 13.0081 29.6608 11.7209 31.1965C10.4562 32.7096 9.82385 34.7082 9.82385 37.1924H0C0 34.1888 0.711382 31.4449 2.13415 28.9607C3.57949 26.4765 5.61201 24.5343 8.23171 23.1341C10.8514 21.7114 13.8211 21 17.1409 21C22.2222 21 26.1631 22.2195 28.9634 24.6585C31.7864 27.0976 33.1978 30.5416 33.1978 34.9905C33.1978 37.4295 32.5655 39.9137 31.3008 42.4431C30.0361 44.9724 27.8681 47.9196 24.7967 51.2846L13.584 63.107H34.79V71Z" fill="url(#paint0_linear)"/>
<defs>
<linearGradient id="paint0_linear" x1="0" y1="21" x2="0" y2="71" gradientUnits="userSpaceOnUse">
<stop stop-color="#EE4D2D"/>
<stop offset="1" stop-color="#FF7337"/>
</linearGradient>
</defs>
</svg>
